PathFileType	4	(X/Y/Z)	./resultDataOpenSim/trcMotMarkerGrf/sub06/qtm-14-04.trc
DataRate	CameraRate	NumFrames	NumMarkers	Units	OrigDataRate	OrigDataStartFrame	OrigNumFrames
250.000000	250.000000	10	24	m	250.000000	68	542
Frame#	Time	L.Toe.Tip			R.Toe.Tip			L.Ankle.Lat			R.Ankle.Lat			L.Ankle.Med			R.Ankle.Med			L.Heel			R.Heel			L.Knee.Lat			R.Knee.Lat			L.Knee.Med			R.Knee.Med			L.Thigh.Upper			R.Thigh.Upper			L.ASIS			R.ASIS			V.Sacral			L.Acromium			R.Acromium			C7			L.Elbow			R.Elbow			L.Wrist.Lat			R.Wrist.Lat
		X1	Y1	Z1	X2	Y2	Z2	X3	Y3	Z3	X4	Y4	Z4	X5	Y5	Z5	X6	Y6	Z6	X7	Y7	Z7	X8	Y8	Z8	X9	Y9	Z9	X10	Y10	Z10	X11	Y11	Z11	X12	Y12	Z12	X13	Y13	Z13	X14	Y14	Z14	X15	Y15	Z15	X16	Y16	Z16	X17	Y17	Z17	X18	Y18	Z18	X19	Y19	Z19	X20	Y20	Z20	X21	Y21	Z21	X22	Y22	Z22	X23	Y23	Z23	X24	Y24	Z24

68	0.268	-1.3540006	0.082126984	-0.071392093	-0.80311131	0.035278193	0.081030925	-1.3554737	0.21300361	-0.096034505	-0.93700619	0.060608725	0.10607644	-1.3344422	0.21480854	-0.01516014	-0.92086696	0.082176373	0.020244004	-1.4025031	0.26713122	-0.044130194	-0.99423135	0.039368114	0.045287972	-1.0195842	0.38437272	-0.12251158	-0.88140082	0.44236184	0.14389908	-1.0190858	0.37784888	0.00098329838	-0.91853948	0.43317883	0.021333619	-1.0472788	0.77817087	-0.12929599	-1.0032925	0.79738077	0.21201968	-0.96586184	0.82959716	-0.09394552	-0.92729778	0.84794053	0.14558724	-1.1265416	0.91786171	0.053977293	-0.99849393	1.3233615	-0.1385673	-0.99821194	1.2995957	0.22503437	-1.0767586	1.3536816	0.044371902	-1.0142245	0.99945889	-0.19514977	-1.1185805	1.0040899	0.26881007	-0.833121	0.83463408	-0.17442937	-1.0286158	0.7855708	0.31980462
69	0.272	-1.3383594	0.082301666	-0.07087689	-0.80322121	0.035310233	0.081193277	-1.341616	0.21302669	-0.095319062	-0.93716615	0.060622874	0.10633911	-1.3209052	0.21514689	-0.014421253	-0.92089419	0.082383794	0.020556246	-1.3896253	0.26648726	-0.043215709	-0.9942574	0.039526769	0.045413915	-1.007418	0.38643927	-0.12241259	-0.88016871	0.4424779	0.14409506	-1.0064701	0.37998036	0.0011718004	-0.91718492	0.43353102	0.021809772	-1.0411631	0.78013682	-0.12907354	-0.99801315	0.79869583	0.21280527	-0.96012059	0.83148857	-0.093645103	-0.92184297	0.84941224	0.14660331	-1.1201196	0.91924488	0.053830992	-0.9936681	1.3253033	-0.13823798	-0.99249287	1.3015968	0.22534527	-1.0713218	1.3553773	0.044821514	-1.0103382	1.0015878	-0.19463197	-1.1109407	1.005179	0.26990619	-0.83066988	0.83543122	-0.17452931	-1.0180492	0.78772043	0.32041095
70	0.276	-1.3225721	0.082281832	-0.070367937	-0.80332815	0.035340363	0.081341406	-1.3277994	0.21279403	-0.094606504	-0.93730519	0.060658542	0.10660316	-1.3071926	0.21526752	-0.013727458	-0.92094207	0.08261152	0.02088087	-1.3766777	0.26564717	-0.042533647	-0.99428451	0.039690438	0.045540153	-0.99532496	0.38861577	-0.12224109	-0.87893188	0.44257974	0.14437928	-0.99380087	0.38227062	0.0014612048	-0.91578165	0.43394398	0.022237596	-1.0347881	0.78212305	-0.12852843	-0.99350208	0.79995195	0.21344032	-0.95439917	0.83337472	-0.093320291	-0.91643294	0.85090561	0.14764525	-1.1139872	0.9206268	0.053774764	-0.98885334	1.3272706	-0.13788976	-0.98679559	1.3036192	0.22565005	-1.0659064	1.3570774	0.045274262	-1.0065534	1.0037553	-0.19409996	-1.1031964	1.0063082	0.27113527	-0.82825558	0.83628139	-0.17467353	-1.007277	0.79000809	0.3209738
71	0.28	-1.3066063	0.082071432	-0.069860314	-0.80342914	0.035368075	0.081475662	-1.3141394	0.21231917	-0.09383289	-0.93741952	0.060715009	0.10684531	-1.2933836	0.21516528	-0.013057433	-0.92102119	0.082853967	0.021196062	-1.3636694	0.26455571	-0.041917755	-0.9943136	0.039862658	0.045660799	-0.98330839	0.39089488	-0.12199056	-0.87768344	0.44266482	0.14477692	-0.98128249	0.38465893	0.001983493	-0.91434129	0.43438361	0.022643143	-1.0281275	0.78411458	-0.12770742	-0.98958851	0.80114851	0.21393518	-0.94872632	0.83524638	-0.092921082	-0.91108427	0.85242389	0.14870305	-1.1080382	0.92200753	0.053792398	-0.98403046	1.3292444	-0.13752342	-0.9811007	1.3056427	0.22593946	-1.0605045	1.3587733	0.045738014	-1.0028426	1.0059499	-0.19353922	-1.0952101	1.0074344	0.27255922	-0.82586943	0.83718026	-0.17486921	-0.99629877	0.79243281	0.3214872
72	0.284	-1.2904386	0.081690026	-0.069375428	-0.80352543	0.035395453	0.081597549	-1.3005132	0.2116302	-0.093021061	-0.93751797	0.060786871	0.10705561	-1.2795205	0.21483411	-0.012397595	-0.92112484	0.083106404	0.021481153	-1.3506553	0.26320963	-0.041275359	-0.99434704	0.040044959	0.045773225	-0.97135384	0.3932654	-0.1216825	-0.87648175	0.44275546	0.14524859	-0.96903665	0.3870719	0.0027420028	-0.91294762	0.43481892	0.023032785	-1.0213713	0.78611611	-0.12694322	-0.98598638	0.8022802	0.21431328	-0.94311602	0.83711243	-0.092435652	-0.90579259	0.85397456	0.14976723	-1.1021809	0.92342782	0.053848187	-0.97918491	1.3312052	-0.1371522	-0.97540604	1.3076618	0.22621127	-1.05511	1.3604585	0.046212769	-0.99921988	1.0081525	-0.19308631	-1.0869369	1.0085278	0.27414405	-0.82350912	0.83812098	-0.17511828	-0.98520434	0.79497017	0.32194798
73	0.288	-1.2740478	0.081170688	-0.068945036	-0.80362139	0.035426539	0.08171165	-1.2867093	0.21076191	-0.092253574	-0.93761997	0.060866061	0.1072444	-1.2655538	0.21428562	-0.011767707	-0.92123172	0.083372052	0.021745969	-1.3376658	0.2616254	-0.040722504	-0.99438976	0.040235716	0.045881636	-0.95946015	0.39571513	-0.12133874	-0.8754163	0.44287561	0.14578086	-0.95696406	0.38951408	0.0035632563	-0.91173181	0.43524477	0.023387051	-1.0147586	0.78813894	-0.12648644	-0.98217956	0.80338183	0.214668	-0.93753102	0.83898824	-0.091902368	-0.90048678	0.85556109	0.1508287	-1.0963705	0.92492966	0.053921091	-0.97431679	1.3331493	-0.13678484	-0.9697233	1.3096805	0.22646938	-1.0497234	1.3621297	0.046695474	-0.99575109	1.0103397	-0.1929835	-1.0785559	1.0095888	0.27569551	-0.82116913	0.8390963	-0.17541948	-0.97406563	0.79759746	0.32235706
74	0.292	-1.257421	0.080544778	-0.068580581	-0.80372073	0.035466792	0.081828342	-1.2726569	0.20973095	-0.091569447	-0.93774306	0.060944651	0.10743369	-1.2514471	0.21354602	-0.011181681	-0.92132718	0.083657285	0.022022665	-1.3246162	0.25976362	-0.040427591	-0.99444684	0.040433123	0.045994373	-0.94764666	0.39823598	-0.12096721	-0.87458814	0.44304895	0.14639747	-0.94492434	0.39204085	0.0042849532	-0.91080574	0.43567363	0.023682939	-1.0083546	0.79017274	-0.12625	-0.97762311	0.80453088	0.21514493	-0.93190344	0.84087627	-0.091384203	-0.89500404	0.85718075	0.15188271	-1.090616	0.92651417	0.054015477	-0.96943595	1.3350836	-0.13641707	-0.96403567	1.3116971	0.22671446	-1.0443494	1.3637774	0.047184878	-0.99247771	1.0124956	-0.19333343	-1.0703715	1.0106548	0.27702661	-0.81884002	0.84009948	-0.17576905	-0.96290915	0.8003041	0.3227189
75	0.296	-1.2405781	0.079824343	-0.068228994	-0.80382519	0.035520646	0.081961407	-1.2584153	0.2085273	-0.090945558	-0.93789135	0.061015779	0.10764	-1.2372624	0.21263256	-0.010609587	-0.92141659	0.083964332	0.022329006	-1.3113613	0.25755475	-0.040313223	-0.99451987	0.040637784	0.046119624	-0.93593157	0.40082159	-0.12056539	-0.87403167	0.44328773	0.14710469	-0.93288607	0.39467878	0.004886126	-0.91015486	0.43610313	0.023929612	-1.0020652	0.79218798	-0.1260466	-0.97238464	0.80575979	0.21576588	-0.92618858	0.84277161	-0.090901954	-0.88916921	0.85882418	0.15294075	-1.085025	0.92816815	0.054192289	-0.96454706	1.3370037	-0.13604184	-0.95827688	1.3137038	0.22693924	-1.03899	1.3653872	0.047680839	-0.98931603	1.0146292	-0.19386745	-1.0625425	1.0117776	0.27815708	-0.81651753	0.84112248	-0.17616699	-0.95173962	0.80308435	0.32303867
76	0.3	-1.2235737	0.078994319	-0.067779305	-0.80393538	0.035587697	0.082120421	-1.24405	0.20713579	-0.090349747	-0.93805177	0.061075334	0.10786575	-1.2230894	0.2115537	-0.01001379	-0.92151363	0.084291739	0.022660763	-1.2979194	0.25500695	-0.040056915	-0.99460597	0.040848362	0.046264305	-0.92428904	0.40346389	-0.12012851	-0.87360247	0.44356482	0.14783187	-0.92090754	0.39740755	0.0054287121	-0.90961927	0.43651271	0.02417802	-0.99579334	0.79416606	-0.12582264	-0.96702892	0.80701399	0.21640759	-0.92040647	0.84467805	-0.090429688	-0.88303781	0.86046182	0.15401015	-1.0798174	0.9298767	0.054578292	-0.95964293	1.338889	-0.13565806	-0.95239582	1.3156948	0.22713812	-1.0336411	1.3669541	0.048182139	-0.98610885	1.0167677	-0.19415271	-1.0549949	1.0129775	0.27923351	-0.8141957	0.84216067	-0.1766182	-0.94056938	0.80592602	0.32331762
77	0.304	-1.2063981	0.078044982	-0.067210594	-0.80404849	0.035662664	0.082306307	-1.2295863	0.20555907	-0.089772002	-0.9381965	0.061127493	0.1081028	-1.2089674	0.21032422	-0.0093822064	-0.92162227	0.084634506	0.023012677	-1.2844854	0.25219432	-0.039476258	-0.99470045	0.041053676	0.046432793	-0.91265462	0.40615701	-0.11965271	-0.87307232	0.44383108	0.14847824	-0.90908422	0.40019617	0.0059585833	-0.90898968	0.43690879	0.024489675	-0.98949668	0.79610699	-0.12559332	-0.96194293	0.80821382	0.21697835	-0.91458251	0.846609	-0.089932929	-0.87711526	0.86203863	0.15504037	-1.0751377	0.93156311	0.055257075	-0.95471824	1.3407257	-0.13526589	-0.94644493	1.3176628	0.22731853	-1.0282966	1.3684867	0.048686805	-0.98278847	1.018925	-0.19403322	-1.047578	1.0142244	0.28034154	-0.81186174	0.84321283	-0.17712494	-0.92942335	0.80881323	0.32355259
